<svg width="24" height="24" viewBox="0 0 24 24" fill="none" xmlns="http://www.w3.org/2000/svg">
<path fill-rule="evenodd" clip-rule="evenodd" d="M12 2C9.284 2 8.944 2.01133 7.87733 2.06C6.81267 2.10867 6.08533 2.278 5.44933 2.52533C4.78267 2.776 4.178 3.16933 3.678 3.67867C3.16948 4.17809 2.77591 4.78233 2.52467 5.44933C2.27867 6.08533 2.10867 6.81333 2.06 7.878C2.012 8.944 2 9.28333 2 12C2 14.7167 2.01133 15.056 2.06 16.1227C2.10867 17.1873 2.278 17.9147 2.52533 18.5507C2.776 19.2173 3.16933 19.822 3.67867 20.322C4.1781 20.8305 4.78234 21.2241 5.44933 21.4753C6.08533 21.722 6.81267 21.8913 7.87733 21.94C8.944 21.9887 9.284 22 12 22C14.716 22 15.056 21.9887 16.1227 21.94C17.1873 21.8913 17.9147 21.722 18.5507 21.4747C19.2173 21.224 19.822 20.8307 20.322 20.3213C20.8305 19.8219 21.2241 19.2177 21.4753 18.5507C21.722 17.9147 21.8913 17.1873 21.94 16.1227C21.9887 15.056 22 14.716 22 12C22 9.284 21.9887 8.944 21.94 7.87733C21.8913 6.81267 21.722 6.08533 21.4747 5.44933C21.2236 4.78204 20.83 4.17755 20.3213 3.678C19.8219 3.16948 19.2177 2.77591 18.5507 2.52467C17.9147 2.27867 17.1867 2.10867 16.122 2.06C15.056 2.012 14.7167 2 12 2ZM12 3.802C14.67 3.802 14.9867 3.812 16.0413 3.86C17.016 3.90467 17.5453 4.06667 17.898 4.20467C18.3647 4.38533 18.698 4.60267 19.048 4.952C19.398 5.302 19.6147 5.63533 19.7953 6.102C19.9327 6.45467 20.0953 6.984 20.14 7.95867C20.188 9.01333 20.198 9.33 20.198 12C20.198 14.67 20.188 14.9867 20.14 16.0413C20.0953 17.016 19.9333 17.5453 19.7953 17.898C19.6353 18.3324 19.3799 18.7253 19.048 19.048C18.7254 19.38 18.3324 19.6354 17.898 19.7953C17.5453 19.9327 17.016 20.0953 16.0413 20.14C14.9867 20.188 14.6707 20.198 12 20.198C9.32933 20.198 9.01333 20.188 7.95867 20.14C6.984 20.0953 6.45467 19.9333 6.102 19.7953C5.66764 19.6353 5.27467 19.3799 4.952 19.048C4.62012 18.7253 4.36475 18.3323 4.20467 17.898C4.06733 17.5453 3.90467 17.016 3.86 16.0413C3.812 14.9867 3.802 14.67 3.802 12C3.802 9.33 3.812 9.01333 3.86 7.95867C3.90467 6.984 4.06667 6.45467 4.20467 6.102C4.38533 5.63533 4.60267 5.302 4.952 4.952C5.27463 4.62003 5.66761 4.36465 6.102 4.20467C6.45467 4.06733 6.984 3.90467 7.95867 3.86C9.01333 3.812 9.33 3.802 12 3.802Z" fill="white"/>
<path fill-rule="evenodd" clip-rule="evenodd" d="M11.9994 15.3367C11.5612 15.3367 11.1273 15.2504 10.7225 15.0827C10.3177 14.915 9.94984 14.6692 9.64 14.3594C9.33016 14.0495 9.08438 13.6817 8.9167 13.2769C8.74902 12.8721 8.6627 12.4382 8.6627 12C8.6627 11.5618 8.74902 11.1279 8.9167 10.7231C9.08438 10.3183 9.33016 9.95049 9.64 9.64065C9.94984 9.33081 10.3177 9.08504 10.7225 8.91735C11.1273 8.74967 11.5612 8.66336 11.9994 8.66336C12.8843 8.66336 13.733 9.0149 14.3588 9.64065C14.9845 10.2664 15.3361 11.1151 15.3361 12C15.3361 12.8849 14.9845 13.7336 14.3588 14.3594C13.733 14.9851 12.8843 15.3367 11.9994 15.3367ZM11.9994 6.86003C10.6362 6.86003 9.32878 7.40156 8.36484 8.3655C7.4009 9.32944 6.85938 10.6368 6.85938 12C6.85938 13.3632 7.4009 14.6706 8.36484 15.6345C9.32878 16.5985 10.6362 17.14 11.9994 17.14C13.3626 17.14 14.67 16.5985 15.6339 15.6345C16.5979 14.6706 17.1394 13.3632 17.1394 12C17.1394 10.6368 16.5979 9.32944 15.6339 8.3655C14.67 7.40156 13.3626 6.86003 11.9994 6.86003ZM18.6347 6.7667C18.6347 7.08893 18.5067 7.39798 18.2789 7.62583C18.051 7.85369 17.742 7.9817 17.4197 7.9817C17.0975 7.9817 16.7885 7.85369 16.5606 7.62583C16.3327 7.39798 16.2047 7.08893 16.2047 6.7667C16.2047 6.44446 16.3327 6.13542 16.5606 5.90756C16.7885 5.67971 17.0975 5.5517 17.4197 5.5517C17.742 5.5517 18.051 5.67971 18.2789 5.90756C18.5067 6.13542 18.6347 6.44446 18.6347 6.7667Z" fill="white"/>
</svg>
